# xmcd
#
# Track frame offsets: 
#        150
#        7859
#        26375
#        40416
#        49158
#        69736
#        89321
#        123756
#        148985
#        171642
#        176703
#        201012
#        212917
#        234475
#        260272
#        275002
#
# Disc length: 4107 seconds
#
# Revision: 0
# Processed by: cddbd v1.5.2PL0 Copyright (c) Steve Scherf et al.
# Submitted via: ExactAudioCopy v0.95b3
#
DISCID=eb100910
DTITLE=David Crosby  - More Buried Treasure  - '67-'69 [CD1] FLAC
DYEAR=1900
DGENRE=
TTITLE0=Lady Friend
TTITLE1=Laughing
TTITLE2=Games
TTITLE3=Wooden Ships Jam
TTITLE4=Long Time Gone
TTITLE5=Guinnevere [Alternate Mix]
TTITLE6=Wooden Ships [alternate]
TTITLE7=Guinnevere [acoustic]
TTITLE8=Guinnevere [electric]
TTITLE9=Come in My Kitchen
TTITLE10=Almost Cut My Hair [Demo]
TTITLE11=Deja Vu
TTITLE12=Almost Cut My Hair [studio take]
TTITLE13=Triad
TTITLE14=Song With No Words(Tree With No Leaves)
TTITLE15=The Lee Shore
EXTD=
EXTT0=
EXTT1=
EXTT2=
EXTT3=
EXTT4=
EXTT5=
EXTT6=
EXTT7=
EXTT8=
EXTT9=
EXTT10=
EXTT11=
EXTT12=
EXTT13=
EXTT14=
EXTT15=
PLAYORDER=
